<svg width="450" height="451" viewBox="0 0 450 451" fill="none" xmlns="http://www.w3.org/2000/svg">
<g clip-path="url(#clip0_418_9281)">
<rect y="0.922485" width="450" height="450" rx="50" fill="#B78C68"/>
<g clip-path="url(#clip1_418_9281)">
<g filter="url(#filter0_i_418_9281)">
<circle cx="225" cy="156.996" r="100.38" fill="#D9C4AE"/>
</g>
<circle cx="225" cy="156.996" r="98.5735" stroke="white" stroke-width="15"/>
<path d="M353.34 343.334C321.062 314.354 280.577 297.636 223.591 297.636C196.138 297.636 169.192 306.077 145.073 313.231C118.339 321.161 101.988 338.454 86.2752 354.09C71.1666 369.125 60.2078 383.795 54.6189 401.352C49.3649 417.857 43.2939 431.924 43.2939 450.397L223.591 449.904H406.077C406.077 440.238 404.375 430.045 401.305 420.224C398.737 412.012 395.635 402.623 390.473 392.722C385.142 381.214 381.25 375.799 373.465 365.137L373.143 364.749C366.814 357.14 361.209 350.4 353.34 343.334Z" fill="#D9C4AE"/>
<g filter="url(#filter1_d_418_9281)">
<path d="M409.908 458.619C409.908 438.559 406.035 417.187 397.068 397.311C389.246 379.97 377.871 363.149 363.741 349.594C348.249 334.734 325.704 316.728 302.045 307.28C276.637 297.135 253.729 292.812 223.424 292.812C194.642 292.812 166.365 299.328 142.346 310.283C120.28 320.348 101.096 334.827 86.9289 348.229C55.5603 377.904 39.9746 418.164 39.9746 457.971" stroke="white" stroke-width="20"/>
</g>
</g>
</g>
<defs>
<filter id="filter0_i_418_9281" x="124.62" y="56.6158" width="200.761" height="200.76" filterUnits="userSpaceOnUse" color-interpolation-filters="sRGB">
<feFlood flood-opacity="0" result="BackgroundImageFix"/>
<feBlend mode="normal" in="SourceGraphic" in2="BackgroundImageFix" result="shape"/>
<feColorMatrix in="SourceAlpha" type="matrix" values="0 0 0 0 0 0 0 0 0 0 0 0 0 0 0 0 0 0 127 0" result="hardAlpha"/>
<feMorphology radius="8" operator="erode" in="SourceAlpha" result="effect1_innerShadow_418_9281"/>
<feOffset/>
<feGaussianBlur stdDeviation="8"/>
<feComposite in2="hardAlpha" operator="arithmetic" k2="-1" k3="1"/>
<feColorMatrix type="matrix" values="0 0 0 0 0 0 0 0 0 0 0 0 0 0 0 0 0 0 0.25 0"/>
<feBlend mode="normal" in2="shape" result="effect1_innerShadow_418_9281"/>
</filter>
<filter id="filter1_d_418_9281" x="25.9746" y="282.812" width="397.934" height="183.808" filterUnits="userSpaceOnUse" color-interpolation-filters="sRGB">
<feFlood flood-opacity="0" result="BackgroundImageFix"/>
<feColorMatrix in="SourceAlpha" type="matrix" values="0 0 0 0 0 0 0 0 0 0 0 0 0 0 0 0 0 0 127 0" result="hardAlpha"/>
<feOffset dy="4"/>
<feGaussianBlur stdDeviation="2"/>
<feComposite in2="hardAlpha" operator="out"/>
<feColorMatrix type="matrix" values="0 0 0 0 0 0 0 0 0 0 0 0 0 0 0 0 0 0 0.25 0"/>
<feBlend mode="normal" in2="BackgroundImageFix" result="effect1_dropShadow_418_9281"/>
<feBlend mode="normal" in="SourceGraphic" in2="effect1_dropShadow_418_9281" result="shape"/>
</filter>
<clipPath id="clip0_418_9281">
<rect y="0.922485" width="450" height="450" rx="50" fill="white"/>
</clipPath>
<clipPath id="clip1_418_9281">
<rect width="400" height="400" fill="white" transform="translate(25 50.9225)"/>
</clipPath>
</defs>
</svg>
