<svg width="450" height="451" viewBox="0 0 450 451" fill="none" xmlns="http://www.w3.org/2000/svg">
<g clip-path="url(#clip0_418_9301)">
<rect y="0.947998" width="450" height="450" rx="50" fill="#6E9393"/>
<g clip-path="url(#clip1_418_9301)">
<g filter="url(#filter0_i_418_9301)">
<circle cx="225" cy="157.021" r="100.38" fill="#BDD2D1"/>
</g>
<circle cx="225" cy="157.021" r="98.5735" stroke="white" stroke-width="15"/>
<path d="M353.34 343.36C321.062 314.379 280.577 297.661 223.591 297.661C196.138 297.661 169.192 306.103 145.073 313.257C118.339 321.186 101.988 338.479 86.2752 354.116C71.1666 369.151 60.2078 383.82 54.6189 401.377C49.3649 417.882 43.2939 431.95 43.2939 450.422L223.591 449.93H406.077C406.077 440.263 404.375 430.071 401.305 420.249C398.737 412.038 395.635 402.648 390.473 392.748C385.142 381.24 381.25 375.824 373.465 365.162L373.143 364.775C366.814 357.165 361.209 350.425 353.34 343.36Z" fill="#BDD2D1"/>
<g filter="url(#filter1_d_418_9301)">
<path d="M409.908 458.645C409.908 438.584 406.035 417.213 397.068 397.336C389.246 379.996 377.871 363.174 363.741 349.619C348.249 334.759 325.704 316.753 302.045 307.306C276.637 297.16 253.729 292.837 223.424 292.837C194.642 292.837 166.365 299.354 142.346 310.309C120.28 320.373 101.096 334.852 86.9289 348.254C55.5603 377.93 39.9746 418.19 39.9746 457.996" stroke="white" stroke-width="20"/>
</g>
</g>
</g>
<defs>
<filter id="filter0_i_418_9301" x="124.62" y="56.6413" width="200.761" height="200.76" filterUnits="userSpaceOnUse" color-interpolation-filters="sRGB">
<feFlood flood-opacity="0" result="BackgroundImageFix"/>
<feBlend mode="normal" in="SourceGraphic" in2="BackgroundImageFix" result="shape"/>
<feColorMatrix in="SourceAlpha" type="matrix" values="0 0 0 0 0 0 0 0 0 0 0 0 0 0 0 0 0 0 127 0" result="hardAlpha"/>
<feMorphology radius="8" operator="erode" in="SourceAlpha" result="effect1_innerShadow_418_9301"/>
<feOffset/>
<feGaussianBlur stdDeviation="8"/>
<feComposite in2="hardAlpha" operator="arithmetic" k2="-1" k3="1"/>
<feColorMatrix type="matrix" values="0 0 0 0 0 0 0 0 0 0 0 0 0 0 0 0 0 0 0.25 0"/>
<feBlend mode="normal" in2="shape" result="effect1_innerShadow_418_9301"/>
</filter>
<filter id="filter1_d_418_9301" x="25.9746" y="282.837" width="397.934" height="183.808" filterUnits="userSpaceOnUse" color-interpolation-filters="sRGB">
<feFlood flood-opacity="0" result="BackgroundImageFix"/>
<feColorMatrix in="SourceAlpha" type="matrix" values="0 0 0 0 0 0 0 0 0 0 0 0 0 0 0 0 0 0 127 0" result="hardAlpha"/>
<feOffset dy="4"/>
<feGaussianBlur stdDeviation="2"/>
<feComposite in2="hardAlpha" operator="out"/>
<feColorMatrix type="matrix" values="0 0 0 0 0 0 0 0 0 0 0 0 0 0 0 0 0 0 0.25 0"/>
<feBlend mode="normal" in2="BackgroundImageFix" result="effect1_dropShadow_418_9301"/>
<feBlend mode="normal" in="SourceGraphic" in2="effect1_dropShadow_418_9301" result="shape"/>
</filter>
<clipPath id="clip0_418_9301">
<rect y="0.947998" width="450" height="450" rx="50" fill="white"/>
</clipPath>
<clipPath id="clip1_418_9301">
<rect width="400" height="400" fill="white" transform="translate(25 50.948)"/>
</clipPath>
</defs>
</svg>
